<?xml version="1.0" encoding="UTF-8" standalone="no" ?>
<!DOCTYPE svg PUBLIC "-//W3C//DTD SVG 1.1//EN" "http://www.w3.org/Graphics/SVG/1.1/DTD/svg11.dtd">
<svg xmlns="http://www.w3.org/2000/svg" xmlns:xlink="http://www.w3.org/1999/xlink" version="1.1" width="1080" height="1080" viewBox="0 0 1080 1080" xml:space="preserve">
<desc>Created with Fabric.js 5.2.4</desc>
<defs>
</defs>
<g transform="matrix(1 0 0 1 540 540)" id="694cfea9-e57b-4e24-9935-37c4e55851f4"  >
<rect style="stroke: none; stroke-width: 1; stroke-dasharray: none; stroke-linecap: butt; stroke-dashoffset: 0; stroke-linejoin: miter; stroke-miterlimit: 4; fill: rgb(255,255,255); fill-rule: nonzero; opacity: 1;" vector-effect="non-scaling-stroke"  x="-540" y="-540" rx="0" ry="0" width="1080" height="1080" />
</g>
<g transform="matrix(1 0 0 1 540 540)" id="3da5d8ce-440f-4d4c-a7f3-5771f0cf54d4"  >
</g>
<g transform="matrix(1 0 0 1 391.96 467.19)" id="ca1c608f-dd42-4cc8-beb2-94f835248e45"  >
<path style="stroke: rgb(0,0,0); stroke-width: 0; stroke-dasharray: none; stroke-linecap: butt; stroke-dashoffset: 0; stroke-linejoin: miter; stroke-miterlimit: 4; fill: rgb(24,29,25); fill-opacity: 0.41; fill-rule: nonzero; opacity: 1;" vector-effect="non-scaling-stroke"  transform=" translate(-128, -135.38)" d="M 245.44 108.308 L 160.35 108.308 C 156.07915371022798 108.30634477569639 152.6172074055907 104.84484604007068 152.61499999999998 100.57400000000001 L 152.61499999999998 11.894000000000005 C 152.615 5.327 147.29 0 140.726 0 L 110.351 0 C 103.783 0 98.461 5.327 98.461 11.894 L 98.461 100.037 C 98.461 104.61000000000001 94.764 108.327 90.191 108.34700000000001 L 62.306 108.48 C 57.693999999999996 108.50500000000001 53.946999999999996 104.763 53.955999999999996 100.155 L 54.129 11.914000000000001 C 54.144 5.337 48.817 0 42.24 0 L 11.89 0 C 5.321 0 0 5.327 0 11.894 L 0 260.21 C 0 266.044 4.726 270.77 10.555 270.77 L 245.44 270.77 C 251.274 270.77 256 266.044 256 260.21 L 256 118.868 C 256 113.03399999999999 251.274 108.30799999999999 245.44 108.30799999999999 z M 205.538 201.541 C 205.538 209.186 199.34 215.385 191.69500000000002 215.385 L 167.69 215.385 C 160.044 215.385 153.846 209.18599999999998 153.846 201.541 L 153.846 177.536 C 153.846 169.89000000000001 160.044 163.692 167.69 163.692 L 191.695 163.692 C 199.34 163.692 205.53799999999998 169.89000000000001 205.53799999999998 177.536 L 205.53799999999998 201.541 z" stroke-linecap="round" />
</g>
</svg>